<?xml version="1.0" encoding="UTF-8"?><svg id="Layer_1" xmlns="http://www.w3.org/2000/svg" viewBox="0 0 102.98 102.98"><defs><style>.cls-1{fill:#00ffc8;}.cls-2{fill:none;stroke:#00ffc8;stroke-width:2px;}</style></defs><path class="cls-2" d="M51.49,101.98c27.88,0,50.49-22.6,50.49-50.49S79.38,1,51.49,1,1,23.61,1,51.49s22.61,50.49,50.49,50.49Z"/><path class="cls-2" d="M51.49,97.94c25.65,0,46.45-20.8,46.45-46.45S77.14,5.04,51.49,5.04,5.04,25.84,5.04,51.49s20.8,46.45,46.45,46.45Z"/><g><path class="cls-1" d="M12.54,51.68v-6.12h2.6v6.12c0,2.02,.73,3.14,3.4,3.14s3.4-1.12,3.4-3.14v-6.12h2.6v6.12c0,3.28-1.56,5.4-6,5.4s-6-2.12-6-5.4Z"/><path class="cls-1" d="M26.1,45.56h3.31l6.22,8.14v-8.14h2.6v11.2h-3.31l-6.22-8.14v8.14h-2.6v-11.2Z"/><path class="cls-1" d="M39.8,56.77v-11.2h7.16c3.52,0,4.25,1.52,4.25,2.99,0,1.24-.7,2.05-1.76,2.36,1.39,.31,2.16,1.17,2.16,2.49,0,1.59-.98,3.36-4.52,3.36h-7.29Zm7.23-6.8c1.22,0,1.56-.48,1.56-1.11s-.34-1.11-1.56-1.11h-4.62v2.22h4.62Zm0,4.63c1.51,0,1.93-.43,1.93-1.27s-.42-1.27-1.93-1.27h-4.62v2.53h4.62Z"/><path class="cls-1" d="M55.46,54.51h7.8v2.26h-10.4v-11.2h2.6v8.95Z"/><path class="cls-1" d="M63.74,51.16c0-3.21,2.39-5.91,7.47-5.91s7.47,2.7,7.47,5.91-2.39,5.91-7.47,5.91-7.47-2.7-7.47-5.91Zm12.26,0c0-1.91-1.34-3.66-4.79-3.66s-4.79,1.75-4.79,3.66,1.34,3.66,4.79,3.66,4.79-1.75,4.79-3.66Z"/><path class="cls-1" d="M79.92,56.77v-11.2h7.16c3.52,0,4.25,1.52,4.25,2.99,0,1.24-.7,2.05-1.76,2.36,1.39,.31,2.16,1.17,2.16,2.49,0,1.59-.98,3.36-4.52,3.36h-7.29Zm7.23-6.8c1.22,0,1.56-.48,1.56-1.11s-.34-1.11-1.56-1.11h-4.62v2.22h4.62Zm0,4.63c1.51,0,1.93-.43,1.93-1.27s-.42-1.27-1.93-1.27h-4.62v2.53h4.62Z"/></g></svg>
